# xmcd CD database file
#
# Track frame offsets:
#	150
#	12350
#	26792
#	38065
#	49190
#	60555
#	73635
#	86735
#	95465
#	107057
#	114832
#	124180
#	132877
#	147330
#	155990
#	172235
#	187027
#	198032
#	208835
#	225200
#	240650
#	252285
#
# Disc length: 3410 seconds
#
# Revision: 0
# Processed by: cddbd v1.5.2PL0 Copyright (c) Steve Scherf et al.
# Submitted via: Feurio! 1.68 - http://www.feurio.com
#
DISCID=390d5016
DTITLE=FRANK CORRALES - BORDER SPICE
DYEAR=1900
DGENRE=
TTITLE0=EL PORRO DE JAIME
TTITLE1=UNA TEQUILA , UNA GUITARRA
TTITLE2=EL TRENECITO
TTITLE3=VOLVER, VOLVER
TTITLE4=BUENA VISTA SWING
TTITLE5=MARGARITA
TTITLE6=SALUDAMOS A TEJAS
TTITLE7=LA PIEDERA
TTITLE8=LAS NUBES
TTITLE9=MI CAFETAL
TTITLE10=LAS LAURELES
TTITLE11=LA BIKINA
TTITLE12=RIO ROSA
TTITLE13=BESOS Y CEREZAS
TTITLE14=PRIETA LINDA
TTITLE15=LA MULA
TTITLE16=VALENTINA
TTITLE17=LA BAMBA
TTITLE18=QUES SEAS FELIZ
TTITLE19=ELLA
TTITLE20=UNA MANANA DE ABRIL
TTITLE21=HUAPANGO TEJANO
EXTD=
EXTT0=
EXTT1=
EXTT2=
EXTT3=
EXTT4=
EXTT5=
EXTT6=
EXTT7=
EXTT8=
EXTT9=
EXTT10=
EXTT11=
EXTT12=
EXTT13=
EXTT14=
EXTT15=
EXTT16=
EXTT17=
EXTT18=
EXTT19=
EXTT20=
EXTT21=
PLAYORDER=
